
        <svg xmlns="http://www.w3.org/2000/svg" xmlns:xlink="http://www.w3.org/1999/xlink" version="1.1" width="3225.6010018786883" 
        height="3293.236454716244" viewBox="0 0 3225.6010018786883 3293.236454716244">
			<rect fill="#1f2937" width="3225.6010018786883" height="3293.236454716244"/>
			<g transform="scale(14.66182273581222) translate(10, 10)">
				<defs id="SvgjsDefs1764"></defs><g id="SvgjsG1765" featureKey="rDwwlG-0" transform="matrix(0.1953125,0,0,0.1953125,50,-3.0197277665138245)" fill="#f3f6f6"><path xmlns="http://www.w3.org/2000/svg" d="M512,412.336V100.273c0-55.078-131.891-84.812-256.016-84.812C131.882,15.461,0,45.195,0,100.258v311.469  c0.023,55.078,131.898,84.812,255.984,84.812c122.53,0,253.875-29.266,256-83.5L512,412.336z M493.797,411.727  c-0.03,7.048-5.438,14.703-15.655,22.095c-11.423,8.297-28.781,16.141-50.22,22.733c-45.812,14.031-106.875,21.75-171.938,21.75  c-65.047,0-126.102-7.719-171.914-21.75c-40.594-12.438-65.836-29.625-65.859-44.812v-70.188l8.883,5.859  c42.266,27.922,129.977,45.297,228.891,45.297c98.938,0,186.656-17.375,228.922-45.297l8.891-5.859L493.797,411.727L493.797,411.727  z M493.797,307.914c-0.03,7.047-5.438,14.672-15.655,22.078c-11.438,8.312-28.812,16.188-50.22,22.75  c-45.78,14.016-106.828,21.75-171.938,21.75c-65.102,0-126.148-7.734-171.914-21.75c-40.594-12.453-65.836-29.625-65.859-44.812  v-70.219l8.883,5.875c42.273,27.954,129.984,45.312,228.891,45.312c98.938,0,186.656-17.358,228.922-45.312l8.891-5.875  L493.797,307.914L493.797,307.914z M493.797,204.085c-0.03,7.047-5.438,14.703-15.655,22.094  c-11.47,8.312-28.828,16.156-50.22,22.734c-45.78,14.032-106.844,21.735-171.938,21.735c-65.078,0-126.133-7.703-171.914-21.735  c-40.594-12.453-65.836-29.641-65.859-44.797v-70.203l8.883,5.859c42.266,27.938,129.977,45.281,228.891,45.281  c98.938,0,186.656-17.344,228.922-45.281l8.891-5.859L493.797,204.085L493.797,204.085z M478.142,122.351  c-11.438,8.328-28.812,16.172-50.22,22.75c-45.78,14.016-106.828,21.75-171.938,21.75c-65.102,0-126.148-7.734-171.914-21.75  c-40.617-12.453-65.859-29.641-65.859-44.844c0-7.031,5.406-14.672,15.633-22.094c11.469-8.297,28.836-16.141,50.227-22.734  c45.789-14.031,106.844-21.734,171.914-21.734c65.078,0,126.141,7.703,171.938,21.734c40.625,12.469,65.875,29.625,65.875,44.828  C493.797,107.304,488.392,114.96,478.142,122.351z"></path></g><g id="SvgjsG1766" featureKey="4AZ1rv-0" transform="matrix(4.78927178565641,0,0,4.78927178565641,-4.980842474386447,86.98850548463187)" fill="#ffffff"><path d="M1.04 20 l0 -14.36 l3.12 0 l0 5.64 c0.46 -0.44 1.08 -0.9 2.34 -0.9 c2.82 0 4 2.3 4 4.8 c0 2.82 -1.5 5.1 -4.16 5.1 c-1.44 0 -2.22 -0.64 -2.7 -1.52 l-0.08 1.24 l-2.52 0 z M5.66 17.96 c0.9 0 1.6 -0.86 1.6 -2.7 c0 -1.42 -0.42 -2.56 -1.54 -2.56 s-1.58 1.14 -1.58 2.6 c0 1.28 0.36 2.66 1.52 2.66 z M12.459999999999999 20 l0 -13.22 l3.36 0 l0 10.34 l5.18 0 l0 2.88 l-8.54 0 z M31.159999999999997 10.66 l0 9.34 l-2.82 0 l-0.08 -1.46 c-0.26 0.56 -1.04 1.74 -3.1 1.74 c-1.38 0 -2.98 -0.56 -2.98 -3.48 l0 -6.14 l3.12 0 l0 5.34 c0 1.1 0.26 1.64 0.9 1.64 c1.08 0 1.66 -1.82 1.84 -2.5 l0 -4.48 l3.12 0 z M33.24 24.56 l0 -13.9 l2.9 0 l0 0.88 c0.58 -0.76 1.42 -1.16 2.64 -1.16 c3.06 0 4.02 2.52 4.02 4.82 c0 2.86 -1.5 5.08 -4.48 5.08 c-0.96 0 -1.48 -0.3 -1.96 -0.68 l0 4.96 l-3.12 0 z M37.96 17.96 c0.64 0 1.6 -0.26 1.6 -2.68 c0 -1.92 -0.6 -2.58 -1.56 -2.58 c-1.06 0 -1.64 0.8 -1.64 2.7 c0 1.7 0.46 2.56 1.6 2.56 z"></path></g>
			</g>
		</svg>
	